<svg width="24" height="24" viewBox="0 0 24 24" fill="none" xmlns="http://www.w3.org/2000/svg">
<path d="M12 2.25C6.62402 2.25 2.25 6.62402 2.25 12C2.25 17.376 6.62402 21.75 12 21.75C17.376 21.75 21.75 17.376 21.75 12C21.75 6.62402 17.376 2.25 12 2.25ZM12 3.75C16.5645 3.75 20.25 7.43555 20.25 12C20.25 14.0449 19.5088 15.9053 18.2812 17.3438L6.77344 5.60156C8.19434 4.43848 10.0137 3.75 12 3.75ZM5.71875 6.65625L17.2266 18.3984C15.8057 19.5615 13.9863 20.25 12 20.25C7.43555 20.25 3.75 16.5645 3.75 12C3.75 9.95508 4.49121 8.09473 5.71875 6.65625Z" fill="black"/>
</svg>
