<svg width="24" height="24" viewBox="0 0 24 24" fill="none" xmlns="http://www.w3.org/2000/svg">
<path d="M12 3C7.03711 3 3 7.03711 3 12C3 16.9629 7.03711 21 12 21C16.9629 21 21 16.9629 21 12C21 7.03711 16.9629 3 12 3ZM12 4.5C13.9014 4.5 15.624 5.21484 16.9453 6.375C16.8047 6.57129 16.6143 6.80859 16.3125 7.10156C15.6709 7.72266 14.6455 8.46973 13.0781 9.04688C12.0176 7.08691 10.9775 5.61328 10.2891 4.6875C10.8369 4.56152 11.4111 4.5 12 4.5ZM8.8125 5.20312C9.42773 6.00879 10.5234 7.50293 11.625 9.49219C8.5752 10.3008 5.77734 10.4033 4.66406 10.4062C5.16211 8.08887 6.7207 6.18164 8.8125 5.20312ZM17.9766 7.47656C18.8906 8.68652 19.459 10.1836 19.5 11.8125C18.832 11.6631 17.8477 11.5166 16.5703 11.5078C15.9053 11.5049 15.1523 11.5518 14.3438 11.6484C14.1562 11.2207 13.9541 10.8076 13.7578 10.4062C15.4395 9.76172 16.585 8.91211 17.3438 8.17969C17.6016 7.92773 17.8037 7.69629 17.9766 7.47656ZM12.3047 10.8516C12.4775 11.2002 12.6533 11.5576 12.8203 11.9297C9.61523 12.8174 7.3125 15.5361 6.32812 16.8984C5.19434 15.5859 4.5 13.875 4.5 12C4.5 11.9678 4.5 11.9385 4.5 11.9062C5.51367 11.918 8.73633 11.8477 12.3047 10.8516ZM16.5703 12.9844C17.9092 12.9844 18.835 13.1719 19.3828 13.3125C19.0342 15.3105 17.9062 17.0244 16.3125 18.1406C16.0137 16.3477 15.5215 14.6426 14.9297 13.0781C15.5215 13.0195 16.0811 12.9844 16.5703 12.9844ZM13.4062 13.3359C14.0801 15.0469 14.6455 16.9248 14.9297 18.9141C14.0332 19.292 13.0371 19.5 12 19.5C10.2803 19.5 8.69238 18.9229 7.42969 17.9531C8.2002 16.8984 10.4648 14.0918 13.4062 13.3359Z" fill="black"/>
</svg>
