<svg width="24" height="24" viewBox="0 0 24 24" fill="none" xmlns="http://www.w3.org/2000/svg">
<path d="M18.75 3.02344C18.1758 3.02344 17.6133 3.24609 17.1797 3.67969L9.75 11.0859L9.58594 11.25L9.53906 11.4844L9.02344 14.1094L8.78906 15.2109L9.89062 14.9766L12.5156 14.4609L12.75 14.4141L12.9141 14.25L20.3203 6.82031C21.1846 5.95605 21.1846 4.54395 20.3203 3.67969C19.8867 3.24609 19.3242 3.02344 18.75 3.02344ZM18.75 4.47656C18.9258 4.47656 19.0986 4.56738 19.2656 4.73438C19.5996 5.06836 19.5996 5.43164 19.2656 5.76562L12 13.0312L10.7109 13.2891L10.9688 12L18.2344 4.73438C18.4014 4.56738 18.5742 4.47656 18.75 4.47656ZM3 6V21H18V11.1094L16.5 12.6094V19.5H4.5V7.5H11.3906L12.8906 6H3Z" fill="black"/>
</svg>
