<svg width="24" height="24" viewBox="0 0 24 24" fill="none" xmlns="http://www.w3.org/2000/svg">
<path d="M12 3C8.28223 3 5.25 6.03223 5.25 9.75C5.25 11.1885 5.88281 12.6797 6.75 14.0156C7.39453 15.0088 8.16504 15.9229 9 16.6172V18.75C9 19.5703 9.67969 20.25 10.5 20.25L11.25 21H12.75L13.5 20.25C14.3203 20.25 15 19.5703 15 18.75V16.6172C15.835 15.9229 16.6055 15.0088 17.25 14.0156C18.1172 12.6797 18.75 11.1885 18.75 9.75C18.75 6.03223 15.7178 3 12 3ZM12 4.5C14.9092 4.5 17.25 6.84082 17.25 9.75C17.25 10.7314 16.7666 12.0264 16.0078 13.1953C15.3311 14.2383 14.4404 15.167 13.6172 15.75H10.3828C9.55957 15.167 8.66895 14.2383 7.99219 13.1953C7.2334 12.0264 6.75 10.7314 6.75 9.75C6.75 6.84082 9.09082 4.5 12 4.5ZM10.6875 17.25H13.3125C13.3711 17.291 13.4326 17.3203 13.5 17.3438V18.75H10.5V17.3438C10.5674 17.3203 10.6289 17.291 10.6875 17.25Z" fill="black"/>
</svg>
