<svg width="24" height="24" viewBox="0 0 24 24" fill="none" xmlns="http://www.w3.org/2000/svg">
<path fill-rule="evenodd" clip-rule="evenodd" d="M16.215 3.00018C14.945 2.98915 13.7214 3.47738 12.8078 4.35974L11.3524 5.80666C11.1049 6.05268 11.1037 6.45272 11.3498 6.70017C11.5958 6.94763 11.9958 6.9488 12.2433 6.70278L13.6889 5.2656C14.3638 4.61535 15.2668 4.25561 16.2041 4.26376C17.1428 4.27192 18.0408 4.64845 18.7046 5.31226C19.3684 5.97607 19.7449 6.87404 19.7531 7.81278C19.7612 8.74975 19.4017 9.65251 18.7518 10.3273L16.2286 12.8506C15.8656 13.2137 15.4288 13.4945 14.9478 13.6739C14.4668 13.8534 13.9528 13.9273 13.4407 13.8906C12.9286 13.8539 12.4304 13.7075 11.9799 13.4614C11.5294 13.2152 11.137 12.8751 10.8295 12.464C10.6205 12.1845 10.2246 12.1275 9.94514 12.3365C9.66572 12.5455 9.60864 12.9414 9.81765 13.2209C10.2337 13.7771 10.7645 14.2373 11.374 14.5703C11.9836 14.9033 12.6576 15.1014 13.3504 15.151C14.0433 15.2006 14.7386 15.1006 15.3894 14.8579C16.0402 14.6151 16.6312 14.2352 17.1222 13.744L19.6495 11.2169L19.6571 11.209C20.5394 10.2954 21.0277 9.07185 21.0167 7.8018C21.0056 6.53175 20.4962 5.31684 19.5981 4.41874C18.7 3.52065 17.4851 3.01122 16.215 3.00018ZM10.6664 8.84902C9.97357 8.7994 9.27819 8.89937 8.62741 9.14213C7.97666 9.38488 7.38564 9.76481 6.8946 10.256L4.36737 12.7831L4.35974 12.791C3.47738 13.7046 2.98915 14.9282 3.00018 16.1982C3.01122 17.4683 3.52065 18.6832 4.41874 19.5813C5.31684 20.4794 6.53175 20.9888 7.8018 20.9998C9.07185 21.0109 10.2955 20.5227 11.2091 19.6403L12.6574 18.192C12.9041 17.9453 12.9041 17.5453 12.6574 17.2985C12.4106 17.0518 12.0106 17.0518 11.7638 17.2985L10.3273 18.735C9.65251 19.3849 8.74975 19.7444 7.81278 19.7362C6.87404 19.7281 5.97607 19.3516 5.31226 18.6877C4.64845 18.0239 4.27192 17.126 4.26376 16.1872C4.25562 15.2502 4.61512 14.3475 5.26499 13.6727L7.78828 11.1494C8.15123 10.7863 8.58803 10.5055 9.06905 10.3261C9.55006 10.1466 10.064 10.0727 10.5761 10.1094C11.0882 10.1461 11.5864 10.2925 12.0369 10.5386C12.4875 10.7848 12.8798 11.1249 13.1873 11.536C13.3963 11.8155 13.7923 11.8725 14.0717 11.6635C14.3511 11.4545 14.4082 11.0586 14.1992 10.7791C13.7831 10.2229 13.2523 9.76272 12.6428 9.4297C12.0332 9.09668 11.3592 8.89864 10.6664 8.84902Z" fill="black"/>
</svg>
