<svg width="24" height="24" viewBox="0 0 24 24" fill="none" xmlns="http://www.w3.org/2000/svg">
<path d="M6.48193 3C5.38768 3 4.5 3.88622 4.5 4.98047C4.5 6.07472 5.38697 6.98145 6.48047 6.98145C7.57397 6.98145 8.4624 6.07472 8.4624 4.98047C8.4624 3.88697 7.57618 3 6.48193 3ZM16.1514 8.25C14.4871 8.25 13.5349 9.12034 13.0781 9.98584H13.0298V8.48291H9.75V19.5H13.1675V14.0464C13.1675 12.6094 13.2759 11.2207 15.0542 11.2207C16.8069 11.2207 16.8325 12.8592 16.8325 14.1372V19.5H20.2456H20.25V13.4487C20.25 10.4877 19.6134 8.25 16.1514 8.25ZM4.77246 8.48291V19.5H8.19287V8.48291H4.77246Z" fill="black"/>
</svg>
