<svg width="24" height="24" viewBox="0 0 24 24" fill="none" xmlns="http://www.w3.org/2000/svg">
<path d="M13.2472 12.1236C13.2472 14.9533 10.9533 17.2472 8.1236 17.2472C5.29391 17.2472 3 14.9533 3 12.1236C3 9.29391 5.29391 7 8.1236 7C10.9533 7 13.2472 9.29391 13.2472 12.1236Z" fill="black"/>
<path d="M18.7079 12.1236C18.7079 14.7671 17.6062 16.9101 16.2472 16.9101C14.8882 16.9101 13.7865 14.7671 13.7865 12.1236C13.7865 9.48008 14.8882 7.33708 16.2472 7.33708C17.6062 7.33708 18.7079 9.48008 18.7079 12.1236Z" fill="black"/>
<path d="M21 12.1573C21 14.5216 20.6076 16.4382 20.1236 16.4382C19.6396 16.4382 19.2472 14.5216 19.2472 12.1573C19.2472 9.79303 19.6396 7.8764 20.1236 7.8764C20.6076 7.8764 21 9.79303 21 12.1573Z" fill="black"/>
</svg>
