<svg width="24" height="24" viewBox="0 0 24 24" fill="none" xmlns="http://www.w3.org/2000/svg">
<path d="M19.7143 4L18.6897 4.7433C18.6897 4.7433 17.4116 5.69252 15.5759 6.6317C13.7402 7.57087 11.3496 8.47991 9.24777 8.47991H3V14.346L3.02009 14.4464L4.3058 18.9464L4.44643 19.4085H8.34375L8.12277 18.5848L7.07812 14.9085H9.24777C11.322 14.9085 13.7126 15.8351 15.5558 16.7768C17.399 17.7185 18.6897 18.6451 18.6897 18.6451L19.7143 19.3884V13.5022C20.4576 13.2335 21 12.5254 21 11.6942C21 10.863 20.4576 10.1549 19.7143 9.88616V4ZM18.4286 6.39062V16.9777C17.8962 16.6186 17.4743 16.2921 16.1384 15.6116C14.25 14.6473 11.8117 13.6705 9.42857 13.6228V9.76562C11.8343 9.71791 14.2751 8.72098 16.1585 7.7567C17.4919 7.07366 17.9012 6.74972 18.4286 6.39062ZM4.28571 9.76562H8.14286V13.6228H4.28571V9.76562ZM4.5067 14.9085H5.73214L6.63616 18.1228H5.41071L4.5067 14.9085Z" fill="black"/>
</svg>
