<svg width="24" height="24" viewBox="0 0 24 24" fill="none" xmlns="http://www.w3.org/2000/svg">
<path d="M2.78906 1.71094L1.71094 2.78906L21.2109 22.2891L22.2891 21.2109L17.5781 16.5C18.2988 15.7031 18.75 14.6572 18.75 13.5V10.5H17.25V13.5C17.25 14.2441 16.9775 14.9238 16.5234 15.4453L15.4688 14.3906C15.6475 14.1445 15.75 13.8281 15.75 13.5V4.5C15.75 3.67383 15.0762 3 14.25 3H9.75C8.92383 3 8.25 3.67383 8.25 4.5V7.17188L2.78906 1.71094ZM9.75 4.5H14.25V13.1719L9.75 8.67188V4.5ZM5.25 10.5V13.5C5.25 15.9814 7.26855 18 9.75 18H11.25V19.5H8.25V21H15.75V19.5H12.75V18H14.25C14.4404 18 14.6279 17.9766 14.8125 17.9531L13.3594 16.5H9.75C8.09473 16.5 6.75 15.1553 6.75 13.5V10.5H5.25ZM8.25 11.3906V13.5C8.25 14.3262 8.92383 15 9.75 15H11.8594L10.3594 13.5H9.75V12.8906L8.25 11.3906Z" fill="black"/>
</svg>
