<svg width="24" height="24" viewBox="0 0 24 24" fill="none" xmlns="http://www.w3.org/2000/svg">
<path d="M9.75 3C8.92969 3 8.25 3.67969 8.25 4.5V13.5C8.25 14.3203 8.92969 15 9.75 15H14.25C15.0703 15 15.75 14.3203 15.75 13.5V4.5C15.75 3.67969 15.0703 3 14.25 3H9.75ZM9.75 4.5H14.25V13.5H9.75V4.5ZM5.25 10.5V13.5C5.25 15.9756 7.27441 18 9.75 18H11.25V19.5H8.25V21H15.75V19.5H12.75V18H14.25C16.7256 18 18.75 15.9756 18.75 13.5V10.5H17.25V13.5C17.25 15.1641 15.9141 16.5 14.25 16.5H9.75C8.08594 16.5 6.75 15.1641 6.75 13.5V10.5H5.25Z" fill="black"/>
</svg>
