<svg width="24" height="24" viewBox="0 0 24 24" fill="none" xmlns="http://www.w3.org/2000/svg">
<path fill-rule="evenodd" clip-rule="evenodd" d="M14.8094 4.38442C14.1073 4.37472 13.43 4.64433 12.9267 5.13395L5.34257 12.5114C4.52953 13.3022 4.06397 14.3837 4.0483 15.5178C4.03263 16.652 4.46814 17.7459 5.25901 18.5589C6.04989 19.372 7.13136 19.8375 8.2655 19.8532C9.39964 19.8689 10.4936 19.4334 11.3066 18.6425L18.8907 11.2651C19.1324 11.03 19.519 11.0353 19.7541 11.277C19.9892 11.5187 19.9839 11.9053 19.7422 12.1404L12.1581 19.5178C11.1129 20.5345 9.7066 21.0944 8.24863 21.0742C6.79065 21.0541 5.40039 20.4556 4.38369 19.4104C3.36699 18.3652 2.80713 16.959 2.82728 15.501C2.84742 14.043 3.44592 12.6527 4.49111 11.636L12.0752 4.25863C12.8107 3.54319 13.8003 3.14922 14.8263 3.1634C15.8522 3.17757 16.8305 3.59873 17.546 4.33421C18.2614 5.0697 18.6554 6.05926 18.6412 7.08522C18.627 8.11117 18.2058 9.08948 17.4704 9.80492L9.87809 17.1822C9.45231 17.5964 8.87944 17.8245 8.2855 17.8163C7.69156 17.8081 7.12521 17.5642 6.71104 17.1385C6.29687 16.7127 6.06879 16.1398 6.077 15.5459C6.08521 14.9519 6.32902 14.3856 6.7548 13.9714L13.7614 7.16382C14.0032 6.92884 14.3898 6.93441 14.6248 7.17626C14.8598 7.41811 14.8542 7.80466 14.6123 8.03965L7.60626 14.8467C7.60617 14.8468 7.60635 14.8467 7.60626 14.8467C7.41279 15.0351 7.30175 15.2928 7.29802 15.5628C7.29429 15.8329 7.39801 16.0934 7.58636 16.287C7.77471 16.4806 8.03227 16.5915 8.30237 16.5952C8.57247 16.599 8.83299 16.4953 9.02662 16.3069L16.6189 8.9296C17.1222 8.43998 17.4105 7.77047 17.4202 7.06835C17.4299 6.36623 17.1602 5.68901 16.6706 5.18567C16.181 4.68234 15.5115 4.39412 14.8094 4.38442Z" fill="black"/>
</svg>
