<svg width="24" height="24" viewBox="0 0 24 24" fill="none" xmlns="http://www.w3.org/2000/svg">
<path d="M3.75 3.75V9.75H5.25V11.25H6.75V9.75H9.75V3.75H3.75ZM9.75 9.75V11.25H11.25V12.75H8.25V14.25H3.75V20.25H9.75V14.25H14.25V12.75H12.75V11.25H15.75V9.75H17.25V11.25H18.75V9.75H20.25V3.75H14.25V9.75H9.75ZM18.75 11.25V12.75H20.25V11.25H18.75ZM18.75 12.75H17.25V14.25H18.75V12.75ZM18.75 14.25V15.75H20.25V14.25H18.75ZM18.75 15.75H17.25V14.25H15.75V15.75H12V20.25H13.5V17.25H16.5V18.75H18V17.25H18.75V15.75ZM16.5 18.75H15V20.25H16.5V18.75ZM17.25 12.75V11.25H15.75V12.75H17.25ZM8.25 12.75V11.25H6.75V12.75H8.25ZM5.25 11.25H3.75V12.75H5.25V11.25ZM11.25 3.75V6.75H10.5V8.25H11.25V9H12.75V6.75H13.5V5.25H12.75V3.75H11.25ZM5.25 5.25H8.25V8.25H5.25V5.25ZM15.75 5.25H18.75V8.25H15.75V5.25ZM6 6V7.5H7.5V6H6ZM16.5 6V7.5H18V6H16.5ZM5.25 15.75H8.25V18.75H5.25V15.75ZM6 16.5V18H7.5V16.5H6ZM18.75 18.75V20.25H20.25V18.75H18.75Z" fill="black"/>
</svg>
