<svg width="24" height="24" viewBox="0 0 24 24" fill="none" xmlns="http://www.w3.org/2000/svg">
<path d="M14.25 2.25C10.1162 2.25 6.75 5.61621 6.75 9.75C6.75 11.5459 7.37988 13.1924 8.4375 14.4844L2.46094 20.4609L3.53906 21.5391L9.51562 15.5625C10.8076 16.6201 12.4541 17.25 14.25 17.25C18.3838 17.25 21.75 13.8838 21.75 9.75C21.75 5.61621 18.3838 2.25 14.25 2.25ZM14.25 3.75C17.5723 3.75 20.25 6.42773 20.25 9.75C20.25 13.0723 17.5723 15.75 14.25 15.75C10.9277 15.75 8.25 13.0723 8.25 9.75C8.25 6.42773 10.9277 3.75 14.25 3.75Z" fill="black"/>
</svg>
