<svg width="24" height="24" viewBox="0 0 24 24" fill="none" xmlns="http://www.w3.org/2000/svg">
<path d="M16.5181 3L11.8921 11.3525H21.144L16.5181 3ZM16.5181 6.09521L18.5981 9.85254H14.438L16.5181 6.09521ZM6.5 12.1025C4.01825 12.1025 2 14.1208 2 16.6025C2 19.0843 4.01825 21.1025 6.5 21.1025C8.98175 21.1025 11 19.0843 11 16.6025C11 14.1208 8.98175 12.1025 6.5 12.1025ZM12.5 12.8525V21.1025H20.75V12.8525H12.5ZM6.5 13.6025C8.1545 13.6025 9.5 14.948 9.5 16.6025C9.5 18.257 8.1545 19.6025 6.5 19.6025C4.8455 19.6025 3.5 18.257 3.5 16.6025C3.5 14.948 4.8455 13.6025 6.5 13.6025ZM14 14.3525H19.25V19.6025H14V14.3525Z" fill="black"/>
</svg>
