<svg width="24" height="24" viewBox="0 0 24 24" fill="none" xmlns="http://www.w3.org/2000/svg">
<path d="M12 1.59375L11.3203 3.14062L8.88281 8.60156L2.92969 9.23438L1.24219 9.42188L2.50781 10.5469L6.9375 14.5547L5.69531 20.4141L5.34375 22.0547L6.82031 21.2109L12 18.2109L17.1797 21.2109L18.6562 22.0547L18.3047 20.4141L17.0625 14.5547L21.4922 10.5469L22.7578 9.42188L21.0703 9.23438L15.1172 8.60156L12.6797 3.14062L12 1.59375ZM12 5.27344L13.9219 9.60938L14.1094 10.0078L14.5312 10.0547L19.2422 10.5469L15.7266 13.7109L15.3984 14.0156L15.4922 14.4375L16.4766 19.0547L12.375 16.7109L12 16.4766L11.625 16.7109L7.52344 19.0547L8.50781 14.4375L8.60156 14.0156L8.27344 13.7109L4.75781 10.5469L9.46875 10.0547L9.89062 10.0078L10.0781 9.60938L12 5.27344Z" fill="black"/>
</svg>
