<svg width="24" height="24" viewBox="0 0 24 24" fill="none" xmlns="http://www.w3.org/2000/svg">
<path d="M12 1.78125L11.3203 3.30469L8.88281 8.78906L2.92969 9.39844L1.24219 9.58594L2.50781 10.7109L6.9375 14.7188L5.69531 20.5781L5.34375 22.2188H5.36719L6.82031 21.375L12 18.3984L17.1797 21.375L18.6562 22.2188L18.3047 20.5781L17.0625 14.7188L21.4922 10.7109L22.7578 9.58594L21.0703 9.39844L15.1172 8.78906L12.6797 3.30469L12 1.78125ZM12 5.46094L13.9219 9.79688L14.1094 10.1719L14.5312 10.2188L19.2656 10.7109L15.7266 13.8984L15.3984 14.1797L15.4922 14.6016L16.4766 19.2422L12.375 16.875L12 16.6641V5.46094Z" fill="black"/>
</svg>
